<?xml version="1.0" standalone="no"?>
<!DOCTYPE svg PUBLIC "-//W3C//DTD SVG 20010904//EN"
 "http://www.w3.org/TR/2001/REC-SVG-20010904/DTD/svg10.dtd">
<svg version="1.0" xmlns="http://www.w3.org/2000/svg"
 width="256.000000pt" height="256.000000pt" viewBox="0 0 256.000000 256.000000"
 preserveAspectRatio="xMidYMid meet">
<metadata>
Created by potrace 1.14, written by Peter Selinger 2001-2017
</metadata>
<g transform="translate(0.000000,256.000000) scale(0.100000,-0.100000)"
fill="#000000" stroke="none">
<path d="M954 2485 c-73 -22 -103 -44 -144 -105 -22 -33 -45 -60 -50 -60 -31
0 -42 -265 -15 -355 16 -52 69 -115 116 -140 29 -16 74 -19 132 -10 l37 5 0
-49 c0 -28 -5 -61 -11 -73 -5 -13 -16 -77 -22 -142 l-12 -118 -85 -28 c-47
-16 -105 -32 -130 -35 -117 -15 -190 -30 -190 -38 0 -9 14 -8 175 12 85 10
150 27 181 48 13 8 29 13 35 11 17 -6 13 -740 -5 -782 -37 -88 -275 -272 -408
-315 -40 -13 -68 -43 -68 -73 0 -24 17 -23 25 2 6 19 44 40 155 87 14 6 62 42
108 80 46 37 94 75 106 83 13 8 39 32 58 52 19 21 38 38 42 38 3 0 6 -23 6
-52 0 -44 6 -61 39 -108 21 -30 49 -78 62 -107 13 -30 34 -57 49 -65 35 -18
75 -56 75 -71 0 -16 27 -16 32 0 5 14 -48 67 -88 88 -15 8 -32 27 -38 42 -12
31 -19 42 -76 127 l-40 59 0 459 c0 523 -6 488 87 488 46 0 109 8 263 33 39 6
75 10 82 9 16 -3 27 18 16 29 -5 5 -29 3 -59 -6 -28 -8 -93 -20 -145 -26 -190
-21 -234 -26 -237 -24 -6 5 20 211 29 220 5 5 9 39 9 77 l0 67 61 36 c33 19
64 33 68 30 13 -7 111 59 127 86 61 105 74 147 74 239 0 71 -3 92 -15 96 -8 4
-22 21 -31 40 -18 38 -60 73 -140 115 -65 34 -171 44 -240 24z m201 -31 c84
-41 149 -90 166 -127 5 -12 16 -33 24 -47 50 -86 -32 -299 -133 -347 -127 -61
-159 -73 -227 -88 -85 -19 -96 -16 -162 48 -61 58 -75 109 -70 244 7 140 4
131 49 182 21 24 41 55 44 67 15 61 226 107 309 68z"/>
<path d="M1094 2269 c-10 -17 13 -36 27 -22 12 12 4 33 -11 33 -5 0 -12 -5
-16 -11z"/>
<path d="M915 2250 c-8 -14 3 -30 21 -30 8 0 14 9 14 20 0 21 -24 28 -35 10z"/>
<path d="M1119 2073 l-24 -48 -58 -3 c-62 -3 -107 15 -107 43 0 8 -4 15 -10
15 -17 0 -12 -67 6 -74 9 -3 53 -6 99 -6 79 0 85 1 104 28 12 15 26 33 32 40
5 7 9 20 7 29 -6 33 -26 23 -49 -24z"/>
</g>
</svg>
